<svg width="1440" height="167" viewBox="0 0 1440 167" fill="none" xmlns="http://www.w3.org/2000/svg">
<path d="M0 29.6684L48 44.0896C96 58.2567 192 87.4802 288 112.447C384 137.668 480 159.268 576 141.29C672 123.057 768 65.8802 864 58.4473C960 51.2684 1056 94.4684 1152 123.247C1248 152.28 1344 166.257 1440 166.447C1536 166.257 1632 152.28 1728 148.468C1824 144.657 1920 152.28 2016 159.268C2112 166.257 2208 173.88 2304 148.468C2400 123.057 2496 65.8802 2592 58.4473C2688 51.2684 2784 94.4684 2880 90.8473C2976 87.4802 3072 36.6567 3168 29.6684C3264 22.6802 3360 58.2567 3456 83.6684C3552 109.08 3648 123.057 3744 123.247C3840 123.057 3936 109.08 4032 112.447C4128 116.068 4224 137.668 4320 141.29C4416 144.657 4512 130.68 4608 126.868C4704 123.057 4800 130.68 4896 112.447C4992 94.4684 5088 51.2684 5184 36.8473C5280 22.6802 5376 36.6567 5472 44.0896C5568 51.2684 5664 51.2684 5760 54.8896C5856 58.2567 5952 65.8802 6048 80.0473C6144 94.4684 6240 116.068 6336 101.647C6432 87.4802 6528 36.6567 6624 33.2896C6720 29.6684 6816 72.8684 6864 94.4684L6912 116.068V-35.1316H6864C6816 -35.1316 6720 -35.1316 6624 -35.1316C6528 -35.1316 6432 -35.1316 6336 -35.1316C6240 -35.1316 6144 -35.1316 6048 -35.1316C5952 -35.1316 5856 -35.1316 5760 -35.1316C5664 -35.1316 5568 -35.1316 5472 -35.1316C5376 -35.1316 5280 -35.1316 5184 -35.1316C5088 -35.1316 4992 -35.1316 4896 -35.1316C4800 -35.1316 4704 -35.1316 4608 -35.1316C4512 -35.1316 4416 -35.1316 4320 -35.1316C4224 -35.1316 4128 -35.1316 4032 -35.1316C3936 -35.1316 3840 -35.1316 3744 -35.1316C3648 -35.1316 3552 -35.1316 3456 -35.1316C3360 -35.1316 3264 -35.1316 3168 -35.1316C3072 -35.1316 2976 -35.1316 2880 -35.1316C2784 -35.1316 2688 -35.1316 2592 -35.1316C2496 -35.1316 2400 -35.1316 2304 -35.1316C2208 -35.1316 2112 -35.1316 2016 -35.1316C1920 -35.1316 1824 -35.1316 1728 -35.1316C1632 -35.1316 1536 -35.1316 1440 -35.1316C1344 -35.1316 1248 -35.1316 1152 -35.1316C1056 -35.1316 960 -35.1316 864 -35.1316C768 -35.1316 672 -35.1316 576 -35.1316C480 -35.1316 384 -35.1316 288 -35.1316C192 -35.1316 96 -35.1316 48 -35.1316H0V29.6684Z" fill="url(#paint0_linear_271_1853)"/>
<defs>
<linearGradient id="paint0_linear_271_1853" x1="0" y1="-35.1316" x2="0" y2="166.447" gradientUnits="userSpaceOnUse">
<stop stop-color="#0A479B"/>
<stop offset="1" stop-color="#97C3FF"/>
</linearGradient>
</defs>
</svg>
