<svg width="1440" height="127" viewBox="0 0 1440 127" fill="none" xmlns="http://www.w3.org/2000/svg">
<path d="M0 -10.3555L48 4.06568C96 18.2327 192 47.4563 288 72.4233C384 97.6445 480 119.245 576 101.266C672 83.0328 768 25.8563 864 18.4233C960 11.2445 1056 54.4445 1152 83.2233C1248 112.256 1344 126.233 1440 126.423C1536 126.233 1632 112.256 1728 108.445C1824 104.633 1920 112.256 2016 119.245C2112 126.233 2208 133.856 2304 108.445C2400 83.0328 2496 25.8563 2592 18.4233C2688 11.2445 2784 54.4445 2880 50.8233C2976 47.4563 3072 -3.36725 3168 -10.3555C3264 -17.3437 3360 18.2327 3456 43.6445C3552 69.0563 3648 83.0328 3744 83.2233C3840 83.0328 3936 69.0563 4032 72.4233C4128 76.0445 4224 97.6445 4320 101.266C4416 104.633 4512 90.6563 4608 86.8445C4704 83.0328 4800 90.6563 4896 72.4233C4992 54.4445 5088 11.2445 5184 -3.17666C5280 -17.3437 5376 -3.36726 5472 4.06568C5568 11.2445 5664 11.2445 5760 14.8657C5856 18.2327 5952 25.8563 6048 40.0233C6144 54.4445 6240 76.0445 6336 61.6233C6432 47.4563 6528 -3.36726 6624 -6.73432C6720 -10.3555 6816 32.8445 6864 54.4445L6912 76.0445V-75.1555H6864C6816 -75.1555 6720 -75.1555 6624 -75.1555C6528 -75.1555 6432 -75.1555 6336 -75.1555C6240 -75.1555 6144 -75.1555 6048 -75.1555C5952 -75.1555 5856 -75.1555 5760 -75.1555C5664 -75.1555 5568 -75.1555 5472 -75.1555C5376 -75.1555 5280 -75.1555 5184 -75.1555C5088 -75.1555 4992 -75.1555 4896 -75.1555C4800 -75.1555 4704 -75.1555 4608 -75.1555C4512 -75.1555 4416 -75.1555 4320 -75.1555C4224 -75.1555 4128 -75.1555 4032 -75.1555C3936 -75.1555 3840 -75.1555 3744 -75.1555C3648 -75.1555 3552 -75.1555 3456 -75.1555C3360 -75.1555 3264 -75.1555 3168 -75.1555C3072 -75.1555 2976 -75.1555 2880 -75.1555C2784 -75.1555 2688 -75.1555 2592 -75.1555C2496 -75.1555 2400 -75.1555 2304 -75.1555C2208 -75.1555 2112 -75.1555 2016 -75.1555C1920 -75.1555 1824 -75.1555 1728 -75.1555C1632 -75.1555 1536 -75.1555 1440 -75.1555C1344 -75.1555 1248 -75.1555 1152 -75.1555C1056 -75.1555 960 -75.1555 864 -75.1555C768 -75.1555 672 -75.1555 576 -75.1555C480 -75.1555 384 -75.1555 288 -75.1555C192 -75.1555 96 -75.1555 48 -75.1555H0V-10.3555Z" fill="url(#paint0_linear_271_1854)"/>
<defs>
<linearGradient id="paint0_linear_271_1854" x1="0" y1="-75.1555" x2="0" y2="126.423" gradientUnits="userSpaceOnUse">
<stop stop-color="#0A479B"/>
<stop offset="1" stop-color="#97C3FF"/>
</linearGradient>
</defs>
</svg>
