<svg width="1440" height="202" viewBox="0 0 1440 202" fill="none" xmlns="http://www.w3.org/2000/svg">
<path d="M0 64.7998L48 79.221C96 93.388 192 122.612 288 147.579C384 172.8 480 194.4 576 176.421C672 158.188 768 101.012 864 93.5786C960 86.3998 1056 129.6 1152 158.379C1248 187.412 1344 201.388 1440 201.579C1536 201.388 1632 187.412 1728 183.6C1824 179.788 1920 187.412 2016 194.4C2112 201.388 2208 209.012 2304 183.6C2400 158.188 2496 101.012 2592 93.5786C2688 86.3998 2784 129.6 2880 125.979C2976 122.612 3072 71.788 3168 64.7998C3264 57.8116 3360 93.388 3456 118.8C3552 144.212 3648 158.188 3744 158.379C3840 158.188 3936 144.212 4032 147.579C4128 151.2 4224 172.8 4320 176.421C4416 179.788 4512 165.812 4608 162C4704 158.188 4800 165.812 4896 147.579C4992 129.6 5088 86.3998 5184 71.9786C5280 57.8116 5376 71.788 5472 79.221C5568 86.3998 5664 86.3998 5760 90.021C5856 93.388 5952 101.012 6048 115.179C6144 129.6 6240 151.2 6336 136.779C6432 122.612 6528 71.788 6624 68.421C6720 64.7998 6816 108 6864 129.6L6912 151.2V-0.000213623H6864C6816 -0.000213623 6720 -0.000213623 6624 -0.000213623C6528 -0.000213623 6432 -0.000213623 6336 -0.000213623C6240 -0.000213623 6144 -0.000213623 6048 -0.000213623C5952 -0.000213623 5856 -0.000213623 5760 -0.000213623C5664 -0.000213623 5568 -0.000213623 5472 -0.000213623C5376 -0.000213623 5280 -0.000213623 5184 -0.000213623C5088 -0.000213623 4992 -0.000213623 4896 -0.000213623C4800 -0.000213623 4704 -0.000213623 4608 -0.000213623C4512 -0.000213623 4416 -0.000213623 4320 -0.000213623C4224 -0.000213623 4128 -0.000213623 4032 -0.000213623C3936 -0.000213623 3840 -0.000213623 3744 -0.000213623C3648 -0.000213623 3552 -0.000213623 3456 -0.000213623C3360 -0.000213623 3264 -0.000213623 3168 -0.000213623C3072 -0.000213623 2976 -0.000213623 2880 -0.000213623C2784 -0.000213623 2688 -0.000213623 2592 -0.000213623C2496 -0.000213623 2400 -0.000213623 2304 -0.000213623C2208 -0.000213623 2112 -0.000213623 2016 -0.000213623C1920 -0.000213623 1824 -0.000213623 1728 -0.000213623C1632 -0.000213623 1536 -0.000213623 1440 -0.000213623C1344 -0.000213623 1248 -0.000213623 1152 -0.000213623C1056 -0.000213623 960 -0.000213623 864 -0.000213623C768 -0.000213623 672 -0.000213623 576 -0.000213623C480 -0.000213623 384 -0.000213623 288 -0.000213623C192 -0.000213623 96 -0.000213623 48 -0.000213623H0V64.7998Z" fill="url(#paint0_linear_271_1852)"/>
<defs>
<linearGradient id="paint0_linear_271_1852" x1="0" y1="-0.000213623" x2="0" y2="201.579" gradientUnits="userSpaceOnUse">
<stop stop-color="#0A479B"/>
<stop offset="1" stop-color="#97C3FF"/>
</linearGradient>
</defs>
</svg>
