<svg xmlns="http://www.w3.org/2000/svg" viewBox="0 0 183.12 51.08"><defs><style>.cls-1{fill:#fff;}</style></defs><g id="Livello_2" data-name="Livello 2"><g id="Livello_1-2" data-name="Livello 1"><path class="cls-1" d="M88.58,32.21A11.8,11.8,0,0,1,93.8,22.05h15.25V18H92c-.86.55-8.18,5.51-8.18,14.07a20.66,20.66,0,0,0,6.06,14.54l0,.06h32.26V13.51h-4.19V42.06H93.32A12,12,0,0,1,88.58,32.21Z"/><rect class="cls-1" x="68.05" width="4.12" height="9.38"/><rect class="cls-1" x="63.22" width="4.12" height="9.38"/><rect class="cls-1" x="122.78" width="4.32" height="9.38"/><rect class="cls-1" x="118.15" width="3.92" height="9.38"/><path class="cls-1" d="M178.05,51.08V25c0-6.23-5.83-6.37-6.08-6.37h-12.1V51.08H164V22.89h6.52a3.47,3.47,0,0,1,3.38,3.82V51.08Z"/><path class="cls-1" d="M171,13.51H135.3V42.06h-8.47V13.51h-4V46.63h16.53V17.9H172c.07,0,6.79.17,6.79,7.09V51.08h4.36V24.88S183,14.24,171,13.51Z"/><path class="cls-1" d="M159.16,51.08V18.62H140V47.34H67.42V17.79H32.65c-.18,0-5.23.67-5.23,7,0,6.67,5.18,6.85,5.4,6.85H45.94c6,.62,6.1,7.68,6.1,7.76-.8,7.33-6,7.73-6.08,7.74H0v3.9H45.05A11.4,11.4,0,0,0,56.54,39.7c0-5.41-3.86-11.12-9.26-11.12L35,28.61a3.23,3.23,0,0,1-3-3.4c0-1.41.74-3.13,1.86-3.13l29.38,0v29h81V22.89h10.59V51.08Z"/><path class="cls-1" d="M45.53,42.54H0v3.92H45.94c.17,0,4.66-.39,5.39-7.06,0-.23-.11-6.45-5.42-7H32.81c-.07,0-6.1-.21-6.1-7.57,0-7,5.84-7.75,5.9-7.75H68.13V46.63H88.92A21.44,21.44,0,0,1,83.09,32c0-9.46,8.52-14.68,8.6-14.74l.09-.05h17.27V13.51H92.92v.08c-7.82.32-14.1,8.58-14.1,18.73A22.73,22.73,0,0,0,81,42.06h-8.8V13.51H32.25v0c-4.78,0-8.83,5.75-8.83,11.18,0,5.95,4.53,11.42,10.32,11.42h10a3.31,3.31,0,0,1,3,3.52C46.77,42,45.53,42.54,45.53,42.54Z"/></g></g></svg>